<svg xmlns="http://www.w3.org/2000/svg" viewBox="0 0 100 150" width="100" height="150">
  <g fill="none" stroke="#00f2ff" stroke-width="2" stroke-linecap="round" stroke-linejoin="round">
    
    <path d="M50 30 C 20 30, 10 60, 10 95 C 10 130, 30 145, 50 145 C 70 145, 90 130, 90 95 C 90 60, 80 30, 50 30 Z" />
    
    <ellipse cx="50" cy="95" rx="25" ry="30" />
    
    <path d="M45 5 A 5 5 0 0 1 55 5" />
    <line x1="50" y1="10" x2="50" y2="30" />
    <path d="M40 30 L60 30" />

    <path d="M20 60 L40 40" opacity="0.6" />
    <path d="M15 80 L65 35" opacity="0.6" />
    <path d="M15 110 L80 45" opacity="0.6" />
    <path d="M30 135 L85 80" opacity="0.6" />
    
    <path d="M80 60 L60 40" opacity="0.6" />
    <path d="M85 80 L35 35" opacity="0.6" />
    <path d="M85 110 L20 45" opacity="0.6" />
    <path d="M70 135 L15 80" opacity="0.6" />
    
  </g>
</svg>
